<svg width="94" height="36" viewBox="0 0 94 36" fill="none" xmlns="http://www.w3.org/2000/svg">
<path d="M5.3822 27.3366C3.82781 29.979 2.48069 32.5179 1.44443 34.7976C1.23718 35.2639 0.770865 35.2639 0.511801 34.9013C-0.109953 34.0722 -0.317208 32.5179 0.770861 29.6163C1.08174 28.8392 1.54805 27.8029 2.16981 26.663C1.02993 26.0413 0.615415 25.2641 0.459977 24.9014C0.200913 24.2278 0.304553 24.0206 1.08174 24.1242C1.80712 24.2278 2.5843 24.3314 3.4133 24.3832C7.4547 17.3367 14.6567 7.09075 20.1359 2.58303C20.9649 1.90947 21.483 1.90946 22.0011 2.63484C22.5193 3.36022 22.6747 3.46384 23.1928 4.75916C23.711 6.00267 23.6592 7.14255 23.1928 8.54149C21.8457 12.6347 20.395 17.9196 19.4105 23.6061C20.9649 24.1242 21.5348 25.1604 21.7421 26.2485C21.8457 26.7148 21.6385 26.8703 21.1721 26.7148C20.5504 26.5594 19.825 26.4558 18.9442 26.404C18.5815 29.0982 18.2706 31.9479 18.167 34.694C18.167 35.2121 17.8561 35.3676 17.3898 35.1603C16.3536 34.694 15.5246 33.3987 15.4727 30.4454C15.4727 29.4091 15.5245 28.062 15.68 26.5076C12.0013 26.7667 7.80444 27.3884 5.3822 27.3366ZM16.0945 23.347C16.8717 17.9585 18.3224 11.443 19.9286 7.40162C15.9909 11.8057 11.2759 18.075 7.35109 24.2278C10.4987 23.9687 13.6593 23.3988 16.0945 23.347Z" fill="#001A1A"/>
<path d="M27.1306 33.852C29.6176 34.0593 33.2445 30.3288 35.2652 26.3392C35.6279 25.6656 36.1978 25.6138 36.4051 26.3392C36.6642 27.1682 36.4569 28.3081 35.887 29.5516C35.1616 31.106 31.3793 35.4064 27.2342 35.3028C23.6592 35.1992 21.7421 32.7121 22.9338 27.1164C24.8509 18.1009 30.7575 8.73579 36.0295 3.24363C36.8067 2.41463 37.532 2.31101 38.2574 2.98457C39.76 4.33171 40.0709 6.24877 39.4491 8.68397C37.8429 15.0569 32.0399 21.2615 27.4415 24.2667C25.369 29.3443 24.799 33.6448 27.1306 33.852ZM37.6875 7.59591C37.0139 7.18141 33.1798 12.9326 29.6047 19.5517C29.1384 20.3807 28.7239 21.2097 28.3612 22.0387C35.4595 16.3004 38.361 8.01041 37.6875 7.59591Z" fill="#001A1A"/>
<path d="M50.5889 24.176C49.5008 28.5801 46.2366 33.8132 42.4025 35.1085C40.5372 35.7303 37.9466 35.523 35.8741 32.8287C33.5943 29.8236 34.3715 25.3159 36.7031 21.1709C38.6719 17.6476 41.8325 14.6425 44.9413 14.4352C46.5475 14.3316 47.4283 14.7979 48.4645 16.1968C49.6562 17.803 51.2106 18.1657 50.8998 21.8962C50.8479 22.3107 50.8479 22.6734 50.7961 23.0879C51.107 23.0879 51.4179 22.9843 51.8324 22.9843C52.1951 22.9843 52.1951 23.2434 51.9878 23.5025C51.6122 23.917 51.0941 24.1242 50.5889 24.176ZM46.1848 22.8807C45.0967 22.0517 43.8532 20.2382 43.8014 18.3212C42.4025 19.5129 40.8999 21.2227 39.8118 23.1916C37.6357 27.1293 36.8585 31.8961 38.2056 33.036C39.6564 34.2277 42.817 32.4142 45.3558 27.6475C46.133 26.1967 46.7547 24.746 47.1692 23.5025C46.8065 23.347 46.4957 23.1398 46.1848 22.8807ZM47.9464 18.2694C47.6874 16.6114 46.6511 16.9222 46.392 18.4248C46.133 19.8237 46.7029 21.3263 47.5319 22.1035C47.9464 20.4973 48.1019 19.202 47.9464 18.2694Z" fill="#001A1A"/>
<path d="M64.4617 35.4583C60.1095 35.4583 59.0214 32.2977 60.5758 27.79C62.2856 22.7641 66.7933 17.3756 65.9643 16.9093C65.2389 16.4948 59.5913 20.0181 56.5862 24.9403C54.7209 27.9972 52.8039 31.6241 51.5604 34.7847C51.3531 35.251 50.9904 35.3546 50.6795 34.9919C49.8505 34.0593 49.3842 32.6086 50.4723 29.4998C52.2857 24.3185 63.0498 6.09337 67.2467 0.860279C67.713 0.238526 68.2311 0.29033 68.4902 0.912083C69.1638 2.41465 69.0083 5.0053 67.0394 8.26951C65.7959 10.342 63.0498 14.5388 60.8219 18.0103C62.9462 15.9378 65.6405 14.228 67.0394 14.3834C68.8011 14.5907 70.4073 17.1813 69.0601 19.8238C67.9202 22.1035 65.4332 25.8858 64.2415 28.5801C62.9462 31.5853 63.2053 34.0204 65.1223 33.9168C67.2467 33.8132 70.0964 30.0827 71.7026 26.7667C71.9098 26.3004 72.428 26.3003 72.6352 26.7148C72.8943 27.2848 72.8943 28.3729 72.1171 29.9273C70.6793 32.8676 67.5187 35.4583 64.4617 35.4583Z" fill="#001A1A"/>
<path d="M89.6299 14.6425C90.0962 13.9689 90.5107 13.8653 90.8734 14.3316C91.6505 15.2642 92.0651 17.4922 90.8216 20.0828C89.6817 22.4144 87.091 26.3004 85.8475 29.0464C84.5522 31.948 84.5004 34.1759 86.262 34.0723C88.3863 33.9687 91.2361 30.4454 93.0495 26.8703C93.3086 26.404 93.6713 26.3522 93.8785 26.8185C94.0858 27.2848 94.0858 28.5801 93.4122 30.0309C92.0651 32.8806 88.8008 35.7303 85.9511 35.5749C83.1532 35.4194 81.7025 33.7614 81.7025 31.3262C80.0445 33.4505 77.7129 35.3676 75.2259 35.3676C70.4073 35.3676 69.4229 28.7874 73.7233 22.531C77.9202 16.4171 82.0134 14.0855 84.604 14.0855C86.832 14.0855 87.8682 15.7953 87.7646 17.816C88.4382 16.5596 89.0599 15.4715 89.6299 14.6425ZM85.4848 16.7668C83.8268 16.6114 80.0445 19.9792 77.1948 24.5905C74.4487 29.0464 73.7751 33.606 75.7958 33.6578C77.9202 33.7096 80.6144 30.3936 83.2569 25.834C86.5211 20.1346 86.9874 16.9222 85.4848 16.7668Z" fill="#001A1A"/>
</svg>
