<svg width="94" height="36" viewBox="0 0 94 36" fill="none" xmlns="http://www.w3.org/2000/svg">
<path d="M5.3822 27.3365C3.82781 29.979 2.48069 32.5178 1.44443 34.7976C1.23718 35.2639 0.770865 35.2639 0.511801 34.9012C-0.109953 34.0722 -0.317208 32.5178 0.770861 29.6163C1.08174 28.8391 1.54805 27.8029 2.16981 26.663C1.02993 26.0412 0.615415 25.264 0.459977 24.9013C0.200913 24.2278 0.304553 24.0205 1.08174 24.1241C1.80712 24.2278 2.5843 24.3314 3.4133 24.3832C7.4547 17.3367 14.6567 7.0907 20.1359 2.58299C20.9649 1.90942 21.483 1.90941 22.0011 2.63479C22.5193 3.36017 22.6747 3.4638 23.1928 4.75912C23.711 6.00262 23.6592 7.1425 23.1928 8.54145C21.8457 12.6347 20.395 17.9196 19.4105 23.606C20.9649 24.1241 21.5348 25.1604 21.7421 26.2485C21.8457 26.7148 21.6385 26.8702 21.1721 26.7148C20.5504 26.5593 19.825 26.4557 18.9442 26.4039C18.5815 29.0982 18.2706 31.9479 18.167 34.694C18.167 35.2121 17.8561 35.3675 17.3898 35.1603C16.3536 34.694 15.5246 33.3986 15.4727 30.4453C15.4727 29.4091 15.5245 28.0619 15.68 26.5075C12.0013 26.7666 7.80444 27.3884 5.3822 27.3365ZM16.0945 23.347C16.8717 17.9584 18.3224 11.443 19.9286 7.40158C15.9909 11.8057 11.2759 18.075 7.35109 24.2278C10.4987 23.9687 13.6593 23.3988 16.0945 23.347Z" fill="white"/>
<path d="M27.1306 33.8521C29.6176 34.0593 33.2445 30.3288 35.2652 26.3392C35.6279 25.6657 36.1978 25.6138 36.4051 26.3392C36.6642 27.1682 36.4569 28.3081 35.887 29.5516C35.1616 31.106 31.3793 35.4065 27.2342 35.3028C23.6592 35.1992 21.7421 32.7122 22.9338 27.1164C24.8509 18.101 30.7575 8.73583 36.0295 3.24367C36.8067 2.41467 37.532 2.31104 38.2574 2.98461C39.76 4.33174 40.0709 6.24881 39.4491 8.68401C37.8429 15.057 32.0399 21.2616 27.4415 24.2667C25.369 29.3444 24.799 33.6448 27.1306 33.8521ZM37.6875 7.59594C37.0139 7.18144 33.1798 12.9327 29.6047 19.5517C29.1384 20.3807 28.7239 21.2097 28.3612 22.0388C35.4595 16.3005 38.361 8.01045 37.6875 7.59594Z" fill="white"/>
<path d="M50.5889 24.1761C49.5008 28.5802 46.2366 33.8132 42.4025 35.1086C40.5372 35.7303 37.9466 35.5231 35.8741 32.8288C33.5943 29.8237 34.3715 25.3159 36.7031 21.1709C38.6719 17.6476 41.8325 14.6425 44.9413 14.4353C46.5475 14.3316 47.4283 14.7979 48.4645 16.1969C49.6562 17.8031 51.2106 18.1658 50.8998 21.8963C50.8479 22.3108 50.8479 22.6735 50.7961 23.088C51.107 23.088 51.4179 22.9844 51.8324 22.9844C52.1951 22.9844 52.1951 23.2434 51.9878 23.5025C51.6122 23.917 51.0941 24.1243 50.5889 24.1761ZM46.1848 22.8807C45.0967 22.0517 43.8532 20.2383 43.8014 18.3212C42.4025 19.5129 40.8999 21.2227 39.8118 23.1916C37.6357 27.1294 36.8585 31.8962 38.2056 33.036C39.6564 34.2277 42.817 32.4143 45.3558 27.6475C46.133 26.1968 46.7547 24.746 47.1692 23.5025C46.8065 23.3471 46.4957 23.1398 46.1848 22.8807ZM47.9464 18.2694C47.6874 16.6114 46.6511 16.9223 46.392 18.4248C46.133 19.8238 46.7029 21.3264 47.5319 22.1035C47.9464 20.4974 48.1019 19.202 47.9464 18.2694Z" fill="white"/>
<path d="M64.4617 35.4583C60.1095 35.4583 59.0214 32.2977 60.5758 27.79C62.2856 22.7641 66.7933 17.3756 65.9643 16.9093C65.2389 16.4948 59.5913 20.0181 56.5862 24.9403C54.7209 27.9972 52.8039 31.6241 51.5604 34.7847C51.3531 35.251 50.9904 35.3546 50.6795 34.992C49.8505 34.0593 49.3842 32.6086 50.4723 29.4998C52.2857 24.3185 63.0498 6.09338 67.2467 0.860289C67.713 0.238535 68.2311 0.290339 68.4902 0.912093C69.1638 2.41466 69.0083 5.00531 67.0394 8.26952C65.7959 10.342 63.0498 14.5389 60.8219 18.0103C62.9462 15.9378 65.6405 14.228 67.0394 14.3834C68.8011 14.5907 70.4073 17.1813 69.0601 19.8238C67.9202 22.1035 65.4332 25.8859 64.2415 28.5801C62.9462 31.5853 63.2053 34.0205 65.1223 33.9168C67.2467 33.8132 70.0964 30.0827 71.7026 26.7667C71.9098 26.3004 72.428 26.3004 72.6352 26.7149C72.8943 27.2848 72.8943 28.3729 72.1171 29.9273C70.6793 32.8676 67.5187 35.4583 64.4617 35.4583Z" fill="white"/>
<path d="M89.6299 14.6424C90.0962 13.9689 90.5107 13.8652 90.8734 14.3316C91.6505 15.2642 92.0651 17.4921 90.8216 20.0828C89.6817 22.4144 87.091 26.3003 85.8475 29.0464C84.5522 31.9479 84.5004 34.1759 86.262 34.0722C88.3863 33.9686 91.2361 30.4453 93.0495 26.8703C93.3086 26.4039 93.6713 26.3521 93.8785 26.8184C94.0858 27.2848 94.0858 28.5801 93.4122 30.0308C92.0651 32.8805 88.8008 35.7303 85.9511 35.5748C83.1532 35.4194 81.7025 33.7613 81.7025 31.3261C80.0445 33.4505 77.7129 35.3676 75.2259 35.3676C70.4073 35.3676 69.4229 28.7873 73.7233 22.5309C77.9202 16.417 82.0134 14.0854 84.604 14.0854C86.832 14.0854 87.8682 15.7953 87.7646 17.816C88.4382 16.5595 89.0599 15.4714 89.6299 14.6424ZM85.4848 16.7668C83.8268 16.6113 80.0445 19.9791 77.1948 24.5905C74.4487 29.0464 73.7751 33.6059 75.7958 33.6577C77.9202 33.7095 80.6144 30.3935 83.2569 25.834C86.5211 20.1346 86.9874 16.9222 85.4848 16.7668Z" fill="white"/>
</svg>
